<svg width="427" height="98" viewBox="0 0 427 98" fill="none" xmlns="http://www.w3.org/2000/svg">
<g filter="url(#filter0_d)">
<circle cx="36" cy="54" r="32" fill="#E0E0E0"/>
<g filter="url(#filter1_i)">
<circle cx="35.9999" cy="53.9999" r="22.6796" fill="#E5E5E5"/>
</g>
<g filter="url(#filter2_i)">
<circle cx="35.9999" cy="53.9999" r="15.8447" fill="white"/>
</g>
</g>
<path d="M47.544 64.144C48.216 64.144 48.768 64.408 49.2 64.936C49.632 65.464 49.848 66.136 49.848 66.952C49.848 68.344 48.984 69.52 47.256 70.48C45.576 71.44 43.728 72.184 41.712 72.712C39.744 73.24 37.848 73.504 36.024 73.504C30.456 73.504 26.064 71.896 22.848 68.68C19.632 65.416 18.024 60.976 18.024 55.36C18.024 51.76 18.72 48.568 20.112 45.784C21.552 43 23.544 40.84 26.088 39.304C28.68 37.768 31.608 37 34.872 37C39.576 37 43.296 38.512 46.032 41.536C48.768 44.56 50.136 48.64 50.136 53.776C50.136 55.696 49.272 56.656 47.544 56.656H25.296C25.776 64.096 29.352 67.816 36.024 67.816C37.8 67.816 39.336 67.576 40.632 67.096C41.928 66.616 43.296 65.992 44.736 65.224C44.88 65.128 45.264 64.936 45.888 64.648C46.56 64.312 47.112 64.144 47.544 64.144ZM35.016 42.328C32.232 42.328 30 43.216 28.32 44.992C26.64 46.768 25.632 49.264 25.296 52.48H43.872C43.728 49.216 42.888 46.72 41.352 44.992C39.864 43.216 37.752 42.328 35.016 42.328ZM83.7094 37C88.3654 37 91.8214 38.176 94.0774 40.528C96.3814 42.88 97.5334 46.456 97.5334 51.256V69.904C97.5334 71.008 97.2214 71.872 96.5974 72.496C95.9734 73.072 95.1094 73.36 94.0054 73.36C92.9494 73.36 92.1094 73.048 91.4854 72.424C90.8614 71.8 90.5494 70.96 90.5494 69.904V67.24C89.6374 69.256 88.2694 70.816 86.4454 71.92C84.6694 72.976 82.5814 73.504 80.1814 73.504C77.8774 73.504 75.7654 73.048 73.8454 72.136C71.9734 71.176 70.4854 69.88 69.3814 68.248C68.2774 66.616 67.7254 64.768 67.7254 62.704C67.6774 60.112 68.3254 58.096 69.6694 56.656C71.0134 55.168 73.1974 54.112 76.2214 53.488C79.2454 52.816 83.4454 52.48 88.8214 52.48H90.4774V50.392C90.4774 47.704 89.9254 45.76 88.8214 44.56C87.7174 43.36 85.9414 42.76 83.4934 42.76C81.8134 42.76 80.2294 42.976 78.7414 43.408C77.2534 43.84 75.6214 44.464 73.8454 45.28C72.5494 46 71.6374 46.36 71.1094 46.36C70.3894 46.36 69.7894 46.096 69.3094 45.568C68.8774 45.04 68.6614 44.368 68.6614 43.552C68.6614 42.832 68.8534 42.208 69.2374 41.68C69.6694 41.104 70.3414 40.552 71.2534 40.024C72.9334 39.112 74.9014 38.392 77.1574 37.864C79.4134 37.288 81.5974 37 83.7094 37ZM81.4774 68.104C84.1174 68.104 86.2774 67.216 87.9574 65.44C89.6374 63.616 90.4774 61.288 90.4774 58.456V56.584H89.1814C85.4374 56.584 82.5574 56.752 80.5414 57.088C78.5254 57.424 77.0854 58 76.2214 58.816C75.3574 59.584 74.9254 60.712 74.9254 62.2C74.9254 63.928 75.5494 65.344 76.7974 66.448C78.0454 67.552 79.6054 68.104 81.4774 68.104ZM135.489 67.816C136.545 67.912 137.289 68.2 137.721 68.68C138.201 69.112 138.441 69.736 138.441 70.552C138.441 71.512 138.057 72.256 137.289 72.784C136.569 73.264 135.489 73.456 134.049 73.36L132.105 73.216C128.217 72.928 125.313 71.752 123.393 69.688C121.473 67.576 120.513 64.48 120.513 60.4V43.48H116.193C114.081 43.48 113.025 42.544 113.025 40.672C113.025 39.808 113.289 39.136 113.817 38.656C114.393 38.128 115.185 37.864 116.193 37.864H120.513V30.448C120.513 29.344 120.825 28.48 121.449 27.856C122.121 27.232 123.009 26.92 124.113 26.92C125.217 26.92 126.105 27.232 126.777 27.856C127.449 28.48 127.785 29.344 127.785 30.448V37.864H134.913C135.921 37.864 136.689 38.128 137.217 38.656C137.793 39.136 138.081 39.808 138.081 40.672C138.081 41.584 137.793 42.28 137.217 42.76C136.689 43.24 135.921 43.48 134.913 43.48H127.785V60.904C127.785 63.16 128.241 64.816 129.153 65.872C130.113 66.928 131.553 67.528 133.473 67.672L135.489 67.816Z" fill="#F2994A"/>
<path d="M172.103 73.576C168.455 73.576 164.975 73.072 161.663 72.064C158.399 71.056 155.783 69.664 153.815 67.888C152.903 67.12 152.447 66.136 152.447 64.936C152.447 64.072 152.687 63.352 153.167 62.776C153.647 62.152 154.223 61.84 154.895 61.84C155.567 61.84 156.383 62.152 157.343 62.776C161.615 65.944 166.487 67.528 171.959 67.528C175.799 67.528 178.751 66.808 180.815 65.368C182.879 63.928 183.911 61.864 183.911 59.176C183.911 57.064 182.951 55.48 181.031 54.424C179.111 53.368 176.039 52.36 171.815 51.4C167.783 50.536 164.471 49.552 161.879 48.448C159.287 47.344 157.247 45.856 155.759 43.984C154.319 42.064 153.599 39.64 153.599 36.712C153.599 33.784 154.391 31.192 155.975 28.936C157.607 26.632 159.863 24.856 162.743 23.608C165.623 22.312 168.911 21.664 172.607 21.664C176.015 21.664 179.159 22.144 182.039 23.104C184.919 24.064 187.367 25.48 189.383 27.352C190.343 28.168 190.823 29.152 190.823 30.304C190.823 31.12 190.559 31.84 190.031 32.464C189.551 33.088 188.975 33.4 188.303 33.4C187.679 33.4 186.887 33.088 185.927 32.464C183.719 30.784 181.631 29.584 179.663 28.864C177.743 28.096 175.415 27.712 172.679 27.712C168.983 27.712 166.103 28.48 164.039 30.016C161.975 31.504 160.943 33.592 160.943 36.28C160.943 38.584 161.855 40.336 163.679 41.536C165.503 42.688 168.431 43.744 172.463 44.704C176.687 45.664 180.095 46.672 182.687 47.728C185.327 48.736 187.415 50.152 188.951 51.976C190.535 53.752 191.327 56.056 191.327 58.888C191.327 61.768 190.511 64.336 188.879 66.592C187.295 68.8 185.039 70.528 182.111 71.776C179.231 72.976 175.895 73.576 172.103 73.576ZM214.076 73.36C213.02 73.36 212.132 73.072 211.412 72.496C210.74 71.92 210.404 71.056 210.404 69.904V40.672C210.404 39.52 210.74 38.656 211.412 38.08C212.132 37.456 213.02 37.144 214.076 37.144C215.132 37.144 215.996 37.456 216.668 38.08C217.34 38.656 217.676 39.52 217.676 40.672V69.904C217.676 71.056 217.34 71.92 216.668 72.496C215.996 73.072 215.132 73.36 214.076 73.36ZM214.076 30.088C212.684 30.088 211.58 29.704 210.764 28.936C209.948 28.168 209.54 27.16 209.54 25.912C209.54 24.664 209.948 23.68 210.764 22.96C211.58 22.192 212.684 21.808 214.076 21.808C215.42 21.808 216.5 22.192 217.316 22.96C218.18 23.68 218.612 24.664 218.612 25.912C218.612 27.16 218.204 28.168 217.388 28.936C216.572 29.704 215.468 30.088 214.076 30.088ZM278.962 37C286.834 37 290.77 41.728 290.77 51.184V69.904C290.77 71.008 290.434 71.872 289.762 72.496C289.09 73.072 288.202 73.36 287.098 73.36C286.042 73.36 285.178 73.072 284.506 72.496C283.834 71.872 283.498 71.008 283.498 69.904V51.256C283.498 48.328 282.97 46.216 281.914 44.92C280.858 43.576 279.202 42.904 276.946 42.904C274.306 42.904 272.218 43.816 270.682 45.64C269.146 47.416 268.378 49.864 268.378 52.984V69.904C268.378 71.008 268.042 71.872 267.37 72.496C266.698 73.072 265.81 73.36 264.706 73.36C263.65 73.36 262.786 73.072 262.114 72.496C261.442 71.872 261.106 71.008 261.106 69.904V51.256C261.106 48.328 260.578 46.216 259.522 44.92C258.466 43.576 256.81 42.904 254.554 42.904C251.914 42.904 249.802 43.816 248.218 45.64C246.682 47.416 245.914 49.864 245.914 52.984V69.904C245.914 71.008 245.578 71.872 244.906 72.496C244.234 73.072 243.37 73.36 242.314 73.36C241.258 73.36 240.37 73.072 239.65 72.496C238.978 71.872 238.642 71.008 238.642 69.904V40.6C238.642 39.544 239.002 38.704 239.722 38.08C240.442 37.456 241.306 37.144 242.314 37.144C243.322 37.144 244.138 37.456 244.762 38.08C245.434 38.656 245.77 39.472 245.77 40.528V43.192C246.826 41.176 248.29 39.64 250.162 38.584C252.034 37.528 254.194 37 256.642 37C259.33 37 261.538 37.552 263.266 38.656C265.042 39.76 266.362 41.464 267.226 43.768C268.282 41.704 269.842 40.072 271.906 38.872C273.97 37.624 276.322 37 278.962 37ZM330.391 37C333.415 37 336.103 37.768 338.455 39.304C340.855 40.84 342.703 43 343.999 45.784C345.343 48.568 346.015 51.784 346.015 55.432C346.015 59.032 345.367 62.2 344.071 64.936C342.775 67.672 340.927 69.784 338.527 71.272C336.175 72.76 333.463 73.504 330.391 73.504C327.751 73.504 325.423 72.952 323.407 71.848C321.391 70.696 319.855 69.064 318.799 66.952V83.008C318.799 84.016 318.463 84.808 317.791 85.384C317.167 86.008 316.327 86.32 315.271 86.32C314.167 86.32 313.255 86.008 312.535 85.384C311.863 84.76 311.527 83.92 311.527 82.864V40.672C311.527 39.616 311.863 38.776 312.535 38.152C313.207 37.48 314.095 37.144 315.199 37.144C316.255 37.144 317.119 37.48 317.791 38.152C318.463 38.776 318.799 39.616 318.799 40.672V43.624C319.855 41.512 321.391 39.88 323.407 38.728C325.423 37.576 327.751 37 330.391 37ZM328.663 67.744C331.831 67.744 334.279 66.688 336.007 64.576C337.735 62.416 338.599 59.368 338.599 55.432C338.599 51.448 337.711 48.352 335.935 46.144C334.207 43.936 331.783 42.832 328.663 42.832C325.495 42.832 323.047 43.912 321.319 46.072C319.639 48.232 318.799 51.304 318.799 55.288C318.799 59.272 319.639 62.344 321.319 64.504C323.047 66.664 325.495 67.744 328.663 67.744ZM368.539 73.36C367.483 73.36 366.595 73.072 365.875 72.496C365.203 71.92 364.867 71.056 364.867 69.904V25.408C364.867 24.256 365.203 23.392 365.875 22.816C366.595 22.192 367.483 21.88 368.539 21.88C369.595 21.88 370.459 22.192 371.131 22.816C371.803 23.392 372.139 24.256 372.139 25.408V69.904C372.139 71.056 371.803 71.92 371.131 72.496C370.459 73.072 369.595 73.36 368.539 73.36ZM420.608 64.144C421.28 64.144 421.832 64.408 422.264 64.936C422.696 65.464 422.912 66.136 422.912 66.952C422.912 68.344 422.048 69.52 420.32 70.48C418.64 71.44 416.792 72.184 414.776 72.712C412.808 73.24 410.912 73.504 409.088 73.504C403.52 73.504 399.128 71.896 395.912 68.68C392.696 65.416 391.088 60.976 391.088 55.36C391.088 51.76 391.784 48.568 393.176 45.784C394.616 43 396.608 40.84 399.152 39.304C401.744 37.768 404.672 37 407.936 37C412.64 37 416.36 38.512 419.096 41.536C421.832 44.56 423.2 48.64 423.2 53.776C423.2 55.696 422.336 56.656 420.608 56.656H398.36C398.84 64.096 402.416 67.816 409.088 67.816C410.864 67.816 412.4 67.576 413.696 67.096C414.992 66.616 416.36 65.992 417.8 65.224C417.944 65.128 418.328 64.936 418.952 64.648C419.624 64.312 420.176 64.144 420.608 64.144ZM408.08 42.328C405.296 42.328 403.064 43.216 401.384 44.992C399.704 46.768 398.696 49.264 398.36 52.48H416.936C416.792 49.216 415.952 46.72 414.416 44.992C412.928 43.216 410.816 42.328 408.08 42.328Z" fill="black"/>
<defs>
<filter id="filter0_d" x="0" y="22" width="72" height="72" filterUnits="userSpaceOnUse" color-interpolation-filters="sRGB">
<feFlood flood-opacity="0" result="BackgroundImageFix"/>
<feColorMatrix in="SourceAlpha" type="matrix" values="0 0 0 0 0 0 0 0 0 0 0 0 0 0 0 0 0 0 127 0" result="hardAlpha"/>
<feOffset dy="4"/>
<feGaussianBlur stdDeviation="2"/>
<feComposite in2="hardAlpha" operator="out"/>
<feColorMatrix type="matrix" values="0 0 0 0 0 0 0 0 0 0 0 0 0 0 0 0 0 0 0.25 0"/>
<feBlend mode="normal" in2="BackgroundImageFix" result="effect1_dropShadow"/>
<feBlend mode="normal" in="SourceGraphic" in2="effect1_dropShadow" result="shape"/>
</filter>
<filter id="filter1_i" x="13.3203" y="31.3203" width="45.3592" height="49.3592" filterUnits="userSpaceOnUse" color-interpolation-filters="sRGB">
<feFlood flood-opacity="0" result="BackgroundImageFix"/>
<feBlend mode="normal" in="SourceGraphic" in2="BackgroundImageFix" result="shape"/>
<feColorMatrix in="SourceAlpha" type="matrix" values="0 0 0 0 0 0 0 0 0 0 0 0 0 0 0 0 0 0 127 0" result="hardAlpha"/>
<feOffset dy="4"/>
<feGaussianBlur stdDeviation="2"/>
<feComposite in2="hardAlpha" operator="arithmetic" k2="-1" k3="1"/>
<feColorMatrix type="matrix" values="0 0 0 0 0 0 0 0 0 0 0 0 0 0 0 0 0 0 0.25 0"/>
<feBlend mode="normal" in2="shape" result="effect1_innerShadow"/>
</filter>
<filter id="filter2_i" x="20.1553" y="38.1553" width="31.6893" height="35.6893" filterUnits="userSpaceOnUse" color-interpolation-filters="sRGB">
<feFlood flood-opacity="0" result="BackgroundImageFix"/>
<feBlend mode="normal" in="SourceGraphic" in2="BackgroundImageFix" result="shape"/>
<feColorMatrix in="SourceAlpha" type="matrix" values="0 0 0 0 0 0 0 0 0 0 0 0 0 0 0 0 0 0 127 0" result="hardAlpha"/>
<feOffset dy="4"/>
<feGaussianBlur stdDeviation="2"/>
<feComposite in2="hardAlpha" operator="arithmetic" k2="-1" k3="1"/>
<feColorMatrix type="matrix" values="0 0 0 0 0 0 0 0 0 0 0 0 0 0 0 0 0 0 0.25 0"/>
<feBlend mode="normal" in2="shape" result="effect1_innerShadow"/>
</filter>
</defs>
</svg>
